<svg xmlns="http://www.w3.org/2000/svg" width="2289" height="1335" viewBox="0 0 2289 1335">
  <defs>
    <style>
      .cls-1 {
        fill: rgba(129,125,118,0.1);
        stroke: #4e4e4e;
        stroke-width: 50px;
      }

      .cls-2 {
        fill: #483078;
      }

      .cls-3 {
        fill: #f2f2f1;
        font-size: 99px;
        font-family: MicrosoftJhengHeiBold, Microsoft JhengHei;
      }

      .cls-4 {
        stroke: none;
      }

      .cls-5 {
        fill: none;
      }
    </style>
  </defs>
  <g id="framed" transform="translate(-1537 1174)">
    <g id="Rectangle_3" data-name="Rectangle 3" class="cls-1" transform="translate(1587 -1124)">
      <rect class="cls-4" width="2189" height="1235"/>
      <rect class="cls-5" x="-25" y="-25" width="2239" height="1285"/>
    </g>
    <g id="Group_10" data-name="Group 10">
      <path id="Union_1" data-name="Union 1" class="cls-2" d="M0,196.139V19.835H0c0-.061,0-.122,0-.183C0-17.159,36.041-47,80.5-47S161-17.159,161,19.652c0,.061,0,.122,0,.183h0v176.3Z" transform="translate(1687 -185)"/>
      <path id="Union_1-2" data-name="Union 1" class="cls-2" d="M0,196.139V-8.165H0c0-.061,0-.123,0-.184C0-45.159,36.041-75,80.5-75S161-45.159,161-8.348c0,.061,0,.123,0,.184h0v204.3Z" transform="translate(1948 -185)"/>
      <path id="Union_1-3" data-name="Union 1" class="cls-2" d="M0,196.139v-244.3H0c0-.061,0-.122,0-.183C0-85.159,36.041-115,80.5-115S161-85.159,161-48.348c0,.061,0,.122,0,.183h0v244.3Z" transform="translate(2209 -185)"/>
      <path id="Union_1-4" data-name="Union 1" class="cls-2" d="M0,196.139v-303.3H0c0-.061,0-.123,0-.184C0-144.159,36.041-174,80.5-174s80.5,29.84,80.5,66.651c0,.061,0,.123,0,.184h0v303.3Z" transform="translate(2470 -185)"/>
      <path id="Union_1-5" data-name="Union 1" class="cls-2" d="M0,196.139v-406.3H0c0-.061,0-.122,0-.183C0-247.159,36.041-277,80.5-277S161-247.159,161-210.348c0,.061,0,.122,0,.183h0v406.3Z" transform="translate(2731 -185)"/>
      <path id="Union_1-6" data-name="Union 1" class="cls-2" d="M0,196.139v-527.3H0c0-.061,0-.122,0-.183C0-368.159,36.041-398,80.5-398S161-368.159,161-331.348c0,.061,0,.122,0,.183h0v527.3Z" transform="translate(2992 -185)"/>
      <path id="Union_1-7" data-name="Union 1" class="cls-2" d="M0,196.139v-707.3H0c0-.061,0-.122,0-.183C0-548.159,36.041-578,80.5-578S161-548.159,161-511.348c0,.061,0,.122,0,.183h0v707.3Z" transform="translate(3253 -185)"/>
      <path id="Union_1-8" data-name="Union 1" class="cls-2" d="M0,196.139v-938.3H0c0-.061,0-.122,0-.183C0-779.159,36.041-809,80.5-809S161-779.159,161-742.348c0,.061,0,.122,0,.183h0v938.3Z" transform="translate(3514 -185)"/>
    </g>
    <g id="Group_9" data-name="Group 9">
      <text id="D" class="cls-3" transform="translate(1730 -22)"><tspan x="0" y="0">D</tspan></text>
      <text id="I" class="cls-3" transform="translate(2012 -21)"><tspan x="0" y="0">I</tspan></text>
      <text id="V" class="cls-3" transform="translate(2257 -22)"><tspan x="0" y="0">V</tspan></text>
      <text id="I-2" data-name="I" class="cls-3" transform="translate(2534 -22)"><tspan x="0" y="0">I</tspan></text>
      <text id="D-2" data-name="D" class="cls-3" transform="translate(2768 -22)"><tspan x="0" y="0">D</tspan></text>
      <text id="E" class="cls-3" transform="translate(3046 -22)"><tspan x="0" y="0">E</tspan></text>
      <text id="N" class="cls-3" transform="translate(3294 -22)"><tspan x="0" y="0">N</tspan></text>
      <text id="D-3" data-name="D" class="cls-3" transform="translate(3557 -22)"><tspan x="0" y="0">D</tspan></text>
    </g>
  </g>
</svg>
