<svg xmlns="http://www.w3.org/2000/svg" width="1493" height="1005.139" viewBox="0 0 1493 1005.139">
  <defs>
    <style>
      .cls-1 {
        fill: #483078;
      }

      .cls-2 {
        fill: #f2f2f1;
        font-size: 99px;
        font-family: MicrosoftJhengHeiBold, Microsoft JhengHei;
      }
    </style>
  </defs>
  <g id="normal" transform="translate(-4311 994)">
    <g id="Group_14" data-name="Group 14" transform="translate(4311 -232)">
      <path id="Union_1" data-name="Union 1" class="cls-1" d="M0,243.139V66.835H0c0-.061,0-.122,0-.183C0,29.841,36.041,0,80.5,0S161,29.841,161,66.652c0,.061,0,.122,0,.183h0v176.3Z" transform="translate(0)"/>
      <text id="D" class="cls-2" transform="translate(43 210)"><tspan x="0" y="0">D</tspan></text>
    </g>
    <g id="Group_15" data-name="Group 15" transform="translate(4501 -260)">
      <path id="Union_1-2" data-name="Union 1" class="cls-1" d="M0,271.139V66.835H0c0-.061,0-.123,0-.184C0,29.84,36.041,0,80.5,0S161,29.84,161,66.651c0,.061,0,.123,0,.184h0v204.3Z" transform="translate(0)"/>
      <text id="I" class="cls-2" transform="translate(64 239)"><tspan x="0" y="0">I</tspan></text>
    </g>
    <g id="Group_16" data-name="Group 16" transform="translate(4692 -300)">
      <path id="Union_1-3" data-name="Union 1" class="cls-1" d="M0,311.139V66.835H0c0-.061,0-.122,0-.183C0,29.841,36.041,0,80.5,0S161,29.841,161,66.652c0,.061,0,.122,0,.183h0v244.3Z" transform="translate(0)"/>
      <text id="V" class="cls-2" transform="translate(48 278)"><tspan x="0" y="0">V</tspan></text>
    </g>
    <g id="Group_17" data-name="Group 17" transform="translate(4882 -359)">
      <path id="Union_1-4" data-name="Union 1" class="cls-1" d="M0,370.139V66.835H0c0-.061,0-.123,0-.184C0,29.84,36.041,0,80.5,0S161,29.84,161,66.651c0,.061,0,.123,0,.184h0v303.3Z" transform="translate(0)"/>
      <text id="I-2" data-name="I" class="cls-2" transform="translate(64 337)"><tspan x="0" y="0">I</tspan></text>
    </g>
    <g id="Group_18" data-name="Group 18" transform="translate(5072 -462)">
      <path id="Union_1-5" data-name="Union 1" class="cls-1" d="M0,473.139V66.835H0c0-.061,0-.122,0-.183C0,29.841,36.041,0,80.5,0S161,29.841,161,66.652c0,.061,0,.122,0,.183h0v406.3Z" transform="translate(0)"/>
      <text id="D-2" data-name="D" class="cls-2" transform="translate(37 440)"><tspan x="0" y="0">D</tspan></text>
    </g>
    <g id="Group_19" data-name="Group 19" transform="translate(5263 -583)">
      <path id="Union_1-6" data-name="Union 1" class="cls-1" d="M0,594.139V66.835H0c0-.061,0-.122,0-.183C0,29.841,36.041,0,80.5,0S161,29.841,161,66.652c0,.061,0,.122,0,.183h0v527.3Z" transform="translate(0)"/>
      <text id="E" class="cls-2" transform="translate(54 561)"><tspan x="0" y="0">E</tspan></text>
    </g>
    <g id="Group_20" data-name="Group 20" transform="translate(5453 -763)">
      <path id="Union_1-7" data-name="Union 1" class="cls-1" d="M0,774.139V66.835H0c0-.061,0-.122,0-.183C0,29.841,36.041,0,80.5,0S161,29.841,161,66.652c0,.061,0,.122,0,.183h0v707.3Z" transform="translate(0)"/>
      <text id="N" class="cls-2" transform="translate(41 741)"><tspan x="0" y="0">N</tspan></text>
    </g>
    <g id="Group_21" data-name="Group 21" transform="translate(5643 -994)">
      <path id="Union_1-8" data-name="Union 1" class="cls-1" d="M0,1005.139V66.835H0c0-.061,0-.122,0-.183C0,29.841,36.041,0,80.5,0S161,29.841,161,66.652c0,.061,0,.122,0,.183h0v938.3Z" transform="translate(0)"/>
      <text id="D-3" data-name="D" class="cls-2" transform="translate(43 972)"><tspan x="0" y="0">D</tspan></text>
    </g>
  </g>
</svg>
