<svg aria-hidden="true" focusable="false" width="73px" height="75px" viewBox="0 0 73 75" version="1.1" xmlns="http://www.w3.org/2000/svg" xmlns:xlink="http://www.w3.org/1999/xlink">
        <g stroke="none" stroke-width="1" fill="none" fill-rule="evenodd">
            <g transform="translate(-457.000000, -371.000000)" stroke="#017AB2">
                <g transform="translate(458.000000, 372.000000)">
                    <g>
                        <path d="M31.9197223,18.896118 C31.2971521,18.0846858 30.0191521,17.899064 30.0191521,17.899064 C27.8780033,17.9173316 23.1462347,19.2991824 18.9724909,21.3734319 L17.7649041,22.0186885 C13.7173174,24.3333623 9.93143306,27.5007177 8.71973884,29.2720796 C8.71973884,29.2720796 8.15819339,30.4406128 8.47974711,31.4123279 C8.80130083,32.3840431 11.0269455,38.7381999 14.7289207,44.8631286 C18.4314826,50.9886466 24.3104,57.7181719 26.0009041,59.21611 C27.6831934,60.7075661 29.979838,63.1453985 38.0491934,58.8678482 C46.0927306,54.5413881 45.3645405,51.2667846 45.0746727,49.0316629 C44.7830446,46.7865236 42.5157388,38.1282999 39.5290446,31.6209314 C36.5423504,25.113563 32.5417058,19.706961 31.9197223,18.896118 L31.9197223,18.896118 Z M12.5062099,32.1559935 C12.1834826,31.5466827 12.4134992,30.7882853 13.0184661,30.4647731 L28.8027636,22.0363667 C29.4083174,21.7134438 30.1629124,21.9462076 30.4856397,22.5555184 L34.5654992,30.261473 C34.8888132,30.8713731 34.6582099,31.6297706 34.053243,31.9526935 L18.2683587,40.3816891 C17.6633917,40.704612 16.9093835,40.4712589 16.5860694,39.8619481 L12.5062099,32.1559935 L12.5062099,32.1559935 Z M18.4326562,45.2714965 C18.1204909,44.6833996 18.6298132,43.800665 19.569243,43.2986024 C20.5092595,42.7977183 21.5226231,42.8672528 21.8342017,43.4553496 C22.1451934,44.0428572 21.6358711,44.9261811 20.6964413,45.4276545 C19.7570116,45.9291278 18.7436479,45.8590041 18.4326562,45.2714965 L18.4326562,45.2714965 Z M22.3094909,48.7128649 C21.9984992,48.1247681 22.5078215,47.2414442 23.447838,46.7399708 C24.386681,46.2379082 25.4006314,46.3086212 25.7122099,46.8961288 C26.0226149,47.4836364 25.5138793,48.3675495 24.5738628,48.8690229 C23.6350198,49.3704963 22.6210694,49.3009618 22.3094909,48.7128649 L22.3094909,48.7128649 Z M25.5373504,50.14009 C26.4767802,49.6380273 27.4907306,49.7081511 27.8023091,50.296248 C28.1133008,50.8843448 27.6045653,51.7670794 26.6645488,52.2691421 C25.725119,52.7700262 24.7111686,52.7004917 24.4001769,52.1123948 C24.0880116,51.5242979 24.5979207,50.6415634 25.5373504,50.14009 L25.5373504,50.14009 Z M27.5494083,53.3410341 C28.488838,52.8395607 29.5027884,52.9096845 29.8137802,53.497192 C30.1247719,54.0852889 29.6154496,54.9686128 28.6766066,55.4694969 C27.7371769,55.9715595 26.7232264,55.9014357 26.4116479,55.3139282 C26.1006562,54.7264206 26.6093917,53.8430967 27.5494083,53.3410341 L27.5494083,53.3410341 Z M30.661086,58.6026743 C29.722243,59.1041476 28.7077058,59.0340239 28.396714,58.4465163 C28.0857223,57.8590087 28.5944579,56.9756848 29.5344744,56.4742115 C30.4739041,55.9721488 31.4878545,56.0422726 31.7988463,56.6297802 C32.109838,57.2172878 31.6005157,58.1006116 30.661086,58.6026743 L30.661086,58.6026743 Z M23.7523752,42.4305997 C23.4413835,41.8425028 23.950119,40.9597682 24.8895488,40.4582949 C25.8289785,39.9562322 26.8435157,40.026356 27.1539207,40.6138636 C27.4654992,41.2019604 26.9561769,42.0852843 26.0167471,42.5867577 C25.0773174,43.0888203 24.0633669,43.0186966 23.7523752,42.4305997 L23.7523752,42.4305997 Z M29.7979372,43.3486908 C30.7373669,42.8472174 31.7519041,42.9173412 32.0623091,43.5048488 C32.3738876,44.0923564 31.8645653,44.9762695 30.9257223,45.4777429 C29.9857058,45.9792163 28.9717554,45.9096818 28.6607636,45.3215849 C28.3491851,44.733488 28.8585074,43.8501642 29.7979372,43.3486908 L29.7979372,43.3486908 Z M36.3111603,55.5855841 C35.3723174,56.0870575 34.3577802,56.0169337 34.0467884,55.4294261 C33.7357967,54.8419185 34.245119,53.9585947 35.183962,53.456532 C36.1239785,52.9550587 37.1385157,53.0251824 37.4489207,53.61269 C37.7599124,54.2007869 37.2505901,55.0841107 36.3111603,55.5855841 L36.3111603,55.5855841 Z M34.5807554,52.3174627 C33.6419124,52.8183468 32.6273752,52.7488123 32.3163835,52.1607154 C32.0053917,51.5732078 32.5141273,50.689884 33.453557,50.1884106 C34.3935736,49.6869372 35.4069372,49.7564717 35.7185157,50.3445686 C36.0295074,50.9320761 35.5201851,51.8154 34.5807554,52.3174627 L34.5807554,52.3174627 Z M32.8163174,48.9845209 C31.8768876,49.485405 30.8623504,49.4158705 30.5519455,48.8277736 C30.2403669,48.240266 30.7496893,47.3569422 31.6885322,46.8548795 C32.6285488,46.3534062 33.643086,46.4235299 33.9534909,47.0116268 C34.2650694,47.5991344 33.7557471,48.4824582 32.8163174,48.9845209 L32.8163174,48.9845209 Z M29.072681,39.5897029 C28.7616893,39.001606 29.2704248,38.1182822 30.2104413,37.6173981 C31.1498711,37.1153354 32.1638215,37.1854592 32.4748132,37.7729668 C32.7863917,38.3604744 32.2764826,39.2437982 31.3376397,39.7458609 C30.3982099,40.2473343 29.3842595,40.1772105 29.072681,39.5897029 L29.072681,39.5897029 Z M41.9618215,52.5690833 C41.0223917,53.0705566 40.0084413,52.9998436 39.6974496,52.412336 C39.3864579,51.8248284 39.8957802,50.9415046 40.8340364,50.4394419 C41.7740529,49.9385578 42.7880033,50.0086816 43.098995,50.5961892 C43.4105736,51.1836968 42.9012512,52.0670206 41.9618215,52.5690833 L41.9618215,52.5690833 Z M40.4860777,49.1636606 C39.5460612,49.6657233 38.5326975,49.5955995 38.221119,49.0080919 C37.9101273,48.4205843 38.4194496,47.5372605 39.3588793,47.0351978 C40.2977223,46.5331352 41.3122595,46.6038482 41.6232512,47.1913558 C41.934243,47.7794527 41.4243339,48.6627765 40.4860777,49.1636606 L40.4860777,49.1636606 Z M38.9686727,45.6987212 C38.0286562,46.2007838 37.0147058,46.13066 36.703714,45.5431525 C36.3921355,44.9550556 36.9008711,44.0717317 37.8408876,43.5696691 C38.7803174,43.068785 39.7942678,43.1383195 40.1052595,43.7264163 C40.416838,44.3145132 39.9075157,45.1978371 38.9686727,45.6987212 L38.9686727,45.6987212 Z M37.3303917,42.0575884 C36.390962,42.5590617 35.3770116,42.488938 35.0654331,41.9014304 C34.7544413,41.3133335 35.2631769,40.4300096 36.2031934,39.9285363 C37.1426231,39.4270629 38.1565736,39.4971867 38.4675653,40.0846943 C38.778557,40.6722018 38.2692347,41.556115 37.3303917,42.0575884 L37.3303917,42.0575884 Z M36.6579455,36.9049641 C35.7185157,37.4064375 34.7045653,37.3363137 34.3935736,36.7488061 C34.0825818,36.1612985 34.5919041,35.2779747 35.5301603,34.775912 C36.4701769,34.2744386 37.4841273,34.3445624 37.795119,34.93207 C38.1066975,35.5201669 37.5973752,36.4034907 36.6579455,36.9049641 L36.6579455,36.9049641 Z"></path>
                        <path d="M19.0250074,21.3591125 C19.578338,21.0839209 20.141057,20.8222826 20.7067099,20.5730191 L14.8201645,9.45515979 L20.7067099,20.5730191 C21.8028091,20.0904025 22.9065364,19.6602315 23.9686025,19.2919343 L17.8913545,7.81579558 L23.9686025,19.2919343 C26.2276934,18.508198 28.2890405,18.0079032 29.6333463,17.90478 L21.3046355,2.1723049 C20.4585033,0.576547069 18.5280074,-0.019799654 16.9431231,0.826399846 L2.15282562,8.723869 C0.569114876,9.56947922 -0.019422314,11.511731 0.825536364,13.1074888 L9.1290157,28.7898755 C10.616495,26.9672467 14.1042967,24.1281177 17.8180074,22.0043691 L19.0250074,21.3591125 L19.0250074,21.3591125 Z"></path>
                        <path d="M41.5683289,56.7489906 L45.1775934,63.046577 C45.6358661,63.8456344 45.0578909,65.0430421 43.8872711,65.7201195 L41.7684198,66.9458124 C40.5972132,67.6223006 39.2746182,67.5233023 38.8169322,66.7236556 L35.207081,60.4266585"></path>
                        <path d="M59.9108562,69.8586597 C59.3944926,69.9069803 58.8746083,70.0183534 58.349443,70.1721543 C57.4117736,70.4455781 56.4547405,70.8533566 55.4630876,71.2764564 C53.6346909,72.0560678 51.7593521,72.8557145 49.8329636,72.8557145 C49.1922033,72.8557145 48.546162,72.7673232 47.8942529,72.5604875 C43.7416331,71.2440462 41.598724,66.8592479 41.5101207,66.6736261"></path>
                        <path d="M43.6232215,65.6479922 C43.6408248,65.6851166 45.4287339,69.3068033 48.6008496,70.3126964 C50.3875851,70.8795794 52.4078579,70.018648 54.545486,69.1070389 C55.6791388,68.6238331 56.8386099,68.129431 58.0356347,67.8141687 C58.5754694,67.671564 59.1229322,67.5649052 59.6786099,67.5130489"></path>
                        <path d="M69.8138306,71.5838814 C69.8026818,71.5797564 69.6043512,71.5084541 69.2605,71.3970811" stroke-linecap="round"></path>
                        <path d="M67.7503711,70.9422194 C65.9454455,70.4389782 63.2333628,69.8220068 60.7618587,69.8131677" stroke-linecap="round" stroke-dasharray="1.792,2.688"></path>
                        <path d="M59.9658372,69.8333209 C59.7686802,69.8445171 59.5738702,69.859249 59.382581,69.8798736" stroke-linecap="round"></path>
                        <path d="M59.1504521,67.5343218 C59.3429149,67.5136971 59.5377248,67.4971974 59.7337083,67.4854119" stroke-linecap="round"></path>
                        <path d="M61.4883471,67.4733318 C64.457438,67.5988474 67.5086777,68.3943692 69.2244132,68.9141102" stroke-linecap="round" stroke-dasharray="1.99,2.985"></path>
                        <path d="M70.0574017,69.1772806 C70.3742612,69.2821716 70.5684843,69.3517061 70.6107322,69.3670273" stroke-linecap="round"></path>
                    </g>
                </g>
            </g>
        </g>
    </svg>