<svg aria-hidden="true" focusable="false" width="48px" height="65px" viewBox="0 0 48 65" version="1.1" xmlns="http://www.w3.org/2000/svg" xmlns:xlink="http://www.w3.org/1999/xlink">
        <g stroke="none" stroke-width="1" fill="none" fill-rule="evenodd">
            <g transform="translate(-467.000000, -485.000000)" stroke="#017AB2">
                <g transform="translate(464.000000, 483.000000)">
                    <g transform="translate(28.032568, 35.774882) rotate(-28.000000) translate(-28.032568, -35.774882) translate(13.032568, 4.274882)">
                        <path d="M28.4901086,23.574354 C28.3150254,22.5401295 27.2433534,21.7546581 27.2433534,21.7546581 C25.2901577,20.737589 20.3283812,19.7017307 15.5396521,19.5624454 L14.1328789,19.5624454 C9.34414976,19.7017307 4.38237326,20.737589 2.42917763,21.7546581 C2.42917763,21.7546581 1.35791274,22.5401295 1.18242237,23.574354 C1.00733917,24.60817 -0.0264660654,31.4294766 0.390069087,38.756867 C0.807011409,46.0842573 2.91086002,55.009549 3.72601483,57.1805218 C4.53709795,59.3420999 5.45078796,62.6559478 14.8360619,62.6837232 C24.221743,62.6559478 25.1350259,59.3420999 25.9465162,57.1805218 C26.7612638,55.009549 28.8655196,46.0842573 29.2824619,38.756867 C29.6989971,31.4294766 28.6651918,24.60817 28.4901086,23.574354 L28.4901086,23.574354 Z M4.48212996,26.1913666 C4.48212996,25.4843198 5.05542566,24.9092061 5.76023734,24.9092061 L24.1492667,24.9092061 C24.8540784,24.9092061 25.4277813,25.4843198 25.4277813,26.1913666 L25.4277813,35.1309545 C25.4277813,35.8380013 24.8540784,36.413115 24.1492667,36.413115 L5.76023734,36.413115 C5.05542566,36.413115 4.48212996,35.8380013 4.48212996,35.1309545 L4.48212996,26.1913666 L4.48212996,26.1913666 Z M3.55744636,40.9143605 C3.55744636,40.2322298 4.44426313,39.6795814 5.53873673,39.6795814 C6.63321032,39.6795814 7.52043427,40.2326383 7.52043427,40.9143605 C7.52043427,41.5960827 6.63321032,42.1491395 5.53873673,42.1491395 C4.44426313,42.1491395 3.55744636,41.5960827 3.55744636,40.9143605 L3.55744636,40.9143605 Z M5.42432189,45.8988158 C5.42432189,45.2166852 6.31154584,44.6640368 7.40601943,44.6640368 C8.50049303,44.6640368 9.38771697,45.2170936 9.38771697,45.8988158 C9.38771697,46.580538 8.50049303,47.1340033 7.40601943,47.1340033 C6.31154584,47.1340033 5.42432189,46.5809465 5.42432189,45.8988158 L5.42432189,45.8988158 Z M7.66945858,48.7482431 C8.76393217,48.7482431 9.65115612,49.3012999 9.65115612,49.9834306 C9.65115612,50.6655612 8.76393217,51.2182096 7.66945858,51.2182096 C6.57498498,51.2182096 5.68776103,50.6651528 5.68776103,49.9834306 C5.68776103,49.3008915 6.57498498,48.7482431 7.66945858,48.7482431 L7.66945858,48.7482431 Z M7.95732793,52.6151479 C9.05180153,52.6151479 9.93902547,53.1682047 9.93902547,53.8499269 C9.93902547,54.5316491 9.05180153,55.0847059 7.95732793,55.0847059 C6.86285434,55.0847059 5.97563039,54.5316491 5.97563039,53.8499269 C5.97563039,53.1682047 6.86285434,52.6151479 7.95732793,52.6151479 L7.95732793,52.6151479 Z M8.25374786,58.8764538 C7.15927427,58.8764538 6.27205032,58.323397 6.27205032,57.6416748 C6.27205032,56.9599526 7.15927427,56.4068957 8.25374786,56.4068957 C9.34822146,56.4068957 10.2354454,56.9599526 10.2354454,57.6416748 C10.2354454,58.323397 9.34822146,58.8764538 8.25374786,58.8764538 L8.25374786,58.8764538 Z M9.7553917,40.9143605 C9.7553917,40.2322298 10.6422085,39.6795814 11.7366821,39.6795814 C12.8311557,39.6795814 13.7183796,40.2326383 13.7183796,40.9143605 C13.7183796,41.5960827 12.8311557,42.1491395 11.7366821,42.1491395 C10.6422085,42.1491395 9.7553917,41.5960827 9.7553917,40.9143605 L9.7553917,40.9143605 Z M14.8047098,44.6640368 C15.8991834,44.6640368 16.7864073,45.2170936 16.7864073,45.8988158 C16.7864073,46.580538 15.8991834,47.1340033 14.8047098,47.1340033 C13.7102362,47.1340033 12.8230123,46.5809465 12.8230123,45.8988158 C12.8230123,45.2166852 13.7102362,44.6640368 14.8047098,44.6640368 L14.8047098,44.6640368 Z M14.8360619,58.8764538 C13.7415883,58.8764538 12.8543644,58.323397 12.8543644,57.6416748 C12.8543644,56.9599526 13.7415883,56.4068957 14.8360619,56.4068957 C15.9305355,56.4068957 16.8177594,56.9599526 16.8177594,57.6416748 C16.8177594,58.323397 15.9305355,58.8764538 14.8360619,58.8764538 L14.8360619,58.8764538 Z M14.8360619,55.0847059 C13.7415883,55.0847059 12.8543644,54.5316491 12.8543644,53.8499269 C12.8543644,53.1682047 13.7415883,52.6151479 14.8360619,52.6151479 C15.9305355,52.6151479 16.8177594,53.1682047 16.8177594,53.8499269 C16.8177594,54.5316491 15.9305355,55.0847059 14.8360619,55.0847059 L14.8360619,55.0847059 Z M14.8360619,51.2182096 C13.7415883,51.2182096 12.8543644,50.6651528 12.8543644,49.9834306 C12.8543644,49.3012999 13.7415883,48.7482431 14.8360619,48.7482431 C15.9305355,48.7482431 16.8177594,49.3012999 16.8177594,49.9834306 C16.8177594,50.6655612 15.9305355,51.2182096 14.8360619,51.2182096 L14.8360619,51.2182096 Z M15.9537442,40.9143605 C15.9537442,40.2322298 16.8409682,39.6795814 17.9354417,39.6795814 C19.0299153,39.6795814 19.9171393,40.2326383 19.9171393,40.9143605 C19.9171393,41.5960827 19.0299153,42.1491395 17.9354417,42.1491395 C16.8409682,42.1491395 15.9537442,41.5960827 15.9537442,40.9143605 L15.9537442,40.9143605 Z M21.418376,58.8764538 C20.3239024,58.8764538 19.4370856,58.323397 19.4370856,57.6416748 C19.4370856,56.9599526 20.3243095,56.4068957 21.418376,56.4068957 C22.5128495,56.4068957 23.4000735,56.9599526 23.4000735,57.6416748 C23.4000735,58.323397 22.5128495,58.8764538 21.418376,58.8764538 L21.418376,58.8764538 Z M21.7152031,55.0847059 C20.6207295,55.0847059 19.7335055,54.5316491 19.7335055,53.8499269 C19.7335055,53.1682047 20.6207295,52.6151479 21.7152031,52.6151479 C22.8096766,52.6151479 23.6969006,53.1682047 23.6969006,53.8499269 C23.6969006,54.5316491 22.8092695,55.0847059 21.7152031,55.0847059 L21.7152031,55.0847059 Z M22.0030724,51.2182096 C20.9085988,51.2182096 20.0213749,50.6651528 20.0213749,49.9834306 C20.0213749,49.3012999 20.9085988,48.7482431 22.0030724,48.7482431 C23.097546,48.7482431 23.98477,49.3012999 23.98477,49.9834306 C23.98477,50.6655612 23.097546,51.2182096 22.0030724,51.2182096 L22.0030724,51.2182096 Z M22.2665116,47.1340033 C21.172038,47.1340033 20.284814,46.5809465 20.284814,45.8988158 C20.284814,45.2166852 21.172038,44.6640368 22.2665116,44.6640368 C23.3609851,44.6640368 24.2482091,45.2170936 24.2482091,45.8988158 C24.2482091,46.580538 23.3609851,47.1340033 22.2665116,47.1340033 L22.2665116,47.1340033 Z M24.1333871,42.1491395 C23.0389135,42.1491395 22.1520967,41.5960827 22.1520967,40.9143605 C22.1520967,40.2326383 23.0393207,39.6795814 24.1333871,39.6795814 C25.2278607,39.6795814 26.1150846,40.2326383 26.1150846,40.9143605 C26.1150846,41.5960827 25.2278607,42.1491395 24.1333871,42.1491395 L24.1333871,42.1491395 Z"></path>
                        <path d="M15.5946201,19.5746992 C16.2293985,19.59308 16.8662127,19.6282077 17.4997696,19.6759977 L17.4997696,6.77841816 L17.4997696,19.6759977 C18.727795,19.7687184 19.9366835,19.9129053 21.0779816,20.0926284 L21.0779816,6.77882662 L21.0779816,20.0926284 C23.5075664,20.4749483 25.6195585,21.0177936 26.8903368,21.5733012 L26.8903368,3.32365101 C26.8903368,1.47209515 25.4237096,1.13686838e-13 23.5771925,1.13686838e-13 L6.34656248,1.13686838e-13 C4.50126696,1.13686838e-13 3.03301109,1.47209515 3.03301109,3.32365101 L3.03301109,21.5161166 C5.26063946,20.5856414 9.7936657,19.7029561 14.1878469,19.5751077 L15.5946201,19.5751077 L15.5946201,19.5746992 Z"></path>
                    </g>
                </g>
            </g>
        </g>
    </svg>