<svg aria-hidden="true" focusable="false" xmlns="http://www.w3.org/2000/svg" viewBox="0 0 51.69 47.2" width="51.69px" height="47.2px" version="1.1">
        <defs>
            <style>.cls-1{fill:none;stroke:#017ab2;stroke-linejoin:round;}</style>
        </defs>
        <g id="Layer_2" data-name="Layer 2">
            <g id="Layer_1-2" data-name="Layer 1">
                <rect class="cls-1" x="0.56" y="13.6" width="15.39" height="9.57" rx="2" ry="2"></rect>
                <rect class="cls-1" x="18.12" y="13.6" width="15.39" height="9.57" rx="2" ry="2"></rect>
                <rect class="cls-1" x="35.67" y="13.6" width="15.39" height="9.57" rx="2" ry="2"></rect>
                <rect class="cls-1" x="35.67" y="25.36" width="15.39" height="9.57" rx="2" ry="2"></rect>
                <rect class="cls-1" x="35.67" y="37.13" width="15.39" height="9.57" rx="2" ry="2"></rect>
                <rect class="cls-1" x="0.56" y="25.36" width="15.39" height="9.57" rx="2" ry="2"></rect>
                <rect class="cls-1" x="18.12" y="25.36" width="15.39" height="9.57" rx="2" ry="2"></rect>
                <rect class="cls-1" x="0.56" y="37.13" width="15.39" height="9.57" rx="2" ry="2"></rect>
                <rect class="cls-1" x="18.12" y="37.13" width="15.39" height="9.57" rx="2" ry="2"></rect>
                <rect class="cls-1" x="0.5" y="0.5" width="50.69" height="9.72" rx="1.2" ry="1.2"></rect>
                <circle class="cls-1" cx="5.16" cy="5.53" r="1.51"></circle>
                <circle class="cls-1" cx="11.87" cy="5.53" r="1.51"></circle>
                <circle class="cls-1" cx="18.58" cy="5.53" r="1.51"></circle>
                <line class="cls-1" x1="23.98" y1="7.21" x2="27.71" y2="7.21"></line>
                <polyline class="cls-1" points="8.82 20.62 8.82 16.14 6.86 18.94 9.65 18.94"></polyline>
                <path class="cls-1" d="M41.88,39.68h3s-2.39,2.68-2.39,4.47"></path>
                <polyline class="cls-1" points="42.95 16.42 43.79 16.14 43.79 20.62"></polyline>
                <path class="cls-1" d="M27.22,27.91H24.68v2s2.69-.9,2.55,1.39c0,0-.27,1.74-2.8.83"></path>
            </g>
        </g>
    </svg>